<?xml version="1.0" ?>
<!DOCTYPE svg  PUBLIC '-//W3C//DTD SVG 1.1//EN'  'http://www.w3.org/Graphics/SVG/1.1/DTD/svg11.dtd'>
<!-- Uploaded to: SVG Repo, www.svgrepo.com, Generator: SVG Repo Mixer Tools -->
<svg fill="#000000" width="800px" height="800px" viewBox="0 0 100 100" version="1.1" xml:space="preserve" xmlns="http://www.w3.org/2000/svg" xmlns:xlink="http://www.w3.org/1999/xlink">
<g id="Grid"/>
<g id="_x31_"/>
<g id="_x32_"/>
<g id="_x33_"/>
<g id="_x34_"/>
<g id="_x35_"/>
<g id="_x36_"/>
<g id="_x37_"/>
<g id="_x38_"/>
<g id="_x39_"/>
<g id="_x31_0"/>
<g id="_x31_1"/>
<g id="_x31_2"/>
<g id="_x31_3">
<path d="M71.6,40.9H28.4c-3.1,0-5.7-2.5-5.7-5.7V18.1c0-0.8,0.7-1.5,1.5-1.5h10.9c0.8,0,1.5,0.7,1.5,1.5v6.6h6.4v-6.6   c0-0.8,0.7-1.5,1.5-1.5h10.9c0.8,0,1.5,0.7,1.5,1.5v6.6h6.4v-6.6c0-0.8,0.7-1.5,1.5-1.5h10.9c0.8,0,1.5,0.7,1.5,1.5v13.9   c0,0.1,0,0.2,0,0.2v3C77.2,38.4,74.7,40.9,71.6,40.9z M25.8,19.6v15.6c0,1.5,1.2,2.7,2.7,2.7h43.1c1.5,0,2.7-1.2,2.7-2.7v-3.2   c0-0.1,0-0.2,0-0.2V19.6h-7.9v6.6c0,0.8-0.7,1.5-1.5,1.5h-9.4c-0.8,0-1.5-0.7-1.5-1.5v-6.6h-7.9v6.6c0,0.8-0.7,1.5-1.5,1.5h-9.4   c-0.8,0-1.5-0.7-1.5-1.5v-6.6H25.8z M64.1,64.6H35.9c-0.8,0-1.5-0.7-1.5-1.5V39.4c0-0.8,0.7-1.5,1.5-1.5h28.2   c0.8,0,1.5,0.7,1.5,1.5v23.6C65.6,63.9,64.9,64.6,64.1,64.6z M37.4,61.6h25.2V40.9H37.4V61.6z M70,73.5H30.1   c-0.8,0-1.5-0.7-1.5-1.5v-4.4c0-3.3,2.7-6,6-6h30.8c3.3,0,6,2.7,6,6V72C71.5,72.9,70.8,73.5,70,73.5z M31.6,70.5h36.9v-2.9   c0-1.7-1.4-3-3-3H34.6c-1.7,0-3,1.4-3,3V70.5z M74.1,85.9H25.2c-0.8,0-1.5-0.7-1.5-1.5v-7.2c0-3.7,3-6.7,6.7-6.7h38.6   c3.7,0,6.7,3,6.7,6.7v7.2C75.6,85.2,74.9,85.9,74.1,85.9z M26.7,82.9h45.9v-5.7c0-2-1.6-3.7-3.7-3.7H30.3c-2,0-3.7,1.6-3.7,3.7   V82.9z M86.3,91.7H13.7c-0.8,0-1.5-0.7-1.5-1.5v-5.9c0-0.8,0.7-1.5,1.5-1.5h72.6c0.8,0,1.5,0.7,1.5,1.5v5.9   C87.8,91.1,87.1,91.7,86.3,91.7z M15.2,88.7h69.6v-2.9H15.2V88.7z M58,54v-7.3c0-0.8-0.7-1.5-1.5-1.5S55,45.9,55,46.8V54   c0,0.8,0.7,1.5,1.5,1.5S58,54.8,58,54z"/>
</g>
<g id="_x31_4"/>
<g id="_x31_5"/>
<g id="_x31_6"/>
<g id="_x31_7"/>
<g id="_x31_8"/>
<g id="_x31_9"/>
<g id="_x32_0"/>
<g id="_x32_1"/>
<g id="_x32_2"/>
<g id="_x32_3"/>
<g id="_x32_4"/>
<g id="_x32_5"/>
</svg>