<?xml version="1.0" ?>
<!DOCTYPE svg  PUBLIC '-//W3C//DTD SVG 1.1//EN'  'http://www.w3.org/Graphics/SVG/1.1/DTD/svg11.dtd'>
<!-- Uploaded to: SVG Repo, www.svgrepo.com, Generator: SVG Repo Mixer Tools -->
<svg fill="#000000" width="800px" height="800px" viewBox="0 0 100 100" version="1.1" xml:space="preserve" xmlns="http://www.w3.org/2000/svg" xmlns:xlink="http://www.w3.org/1999/xlink">
<g id="Grid"/>
<g id="_x31_"/>
<g id="_x32_"/>
<g id="_x33_">
<path d="M58.4,61.7H41.6c-0.8,0-1.5-0.7-1.5-1.5V19c0-0.3,0.1-0.6,0.3-0.9l8.4-11.6c0.6-0.8,1.9-0.8,2.4,0l8.4,11.6   c0.2,0.3,0.3,0.6,0.3,0.9v41.2C59.9,61,59.3,61.7,58.4,61.7z M43.1,58.7h13.9V19.5L50,9.9l-6.9,9.6V58.7z M66.5,73.9h-33   c-0.7,0-1.4-0.5-1.5-1.3l-2-12.2c-0.1-0.4,0.1-0.9,0.3-1.2c0.3-0.3,0.7-0.5,1.1-0.5h37c0.4,0,0.9,0.2,1.1,0.5s0.4,0.8,0.3,1.2   l-2,12.2C67.9,73.4,67.3,73.9,66.5,73.9z M34.8,70.9h30.5l1.5-9.2H33.3L34.8,70.9z M55.2,85.5H44.8c-0.8,0-1.5-0.7-1.5-1.5l0-11.5   c0-0.4,0.2-0.8,0.4-1.1c0.3-0.3,0.7-0.4,1.1-0.4h10.4c0.4,0,0.8,0.2,1.1,0.4c0.3,0.3,0.4,0.7,0.4,1.1l0,11.5   C56.7,84.8,56,85.5,55.2,85.5z M46.3,82.5h7.3l0-8.5h-7.3L46.3,82.5z M52.3,61.7h-4.6c-0.8,0-1.5-0.7-1.5-1.5V43.4   c0-2.1,1.7-3.8,3.8-3.8c2.1,0,3.8,1.7,3.8,3.8v16.8C53.8,61,53.1,61.7,52.3,61.7z M49.2,58.7h1.6V43.4c0-0.4-0.4-0.8-0.8-0.8   c-0.4,0-0.8,0.4-0.8,0.8V58.7z M55.2,92.8H44.8c-0.8,0-1.5-0.7-1.5-1.5V84c0-0.8,0.7-1.5,1.5-1.5h10.3c0.8,0,1.5,0.7,1.5,1.5v7.4   C56.7,92.1,56,92.8,55.2,92.8z M46.3,89.8h7.3v-4.4h-7.3V89.8z"/>
</g>
<g id="_x34_"/>
<g id="_x35_"/>
<g id="_x36_"/>
<g id="_x37_"/>
<g id="_x38_"/>
<g id="_x39_"/>
<g id="_x31_0"/>
<g id="_x31_1"/>
<g id="_x31_2"/>
<g id="_x31_3"/>
<g id="_x31_4"/>
<g id="_x31_5"/>
<g id="_x31_6"/>
<g id="_x31_7"/>
<g id="_x31_8"/>
<g id="_x31_9"/>
<g id="_x32_0"/>
<g id="_x32_1"/>
<g id="_x32_2"/>
<g id="_x32_3"/>
<g id="_x32_4"/>
<g id="_x32_5"/>
</svg>