<?xml version="1.0" ?>
<!DOCTYPE svg  PUBLIC '-//W3C//DTD SVG 1.1//EN'  'http://www.w3.org/Graphics/SVG/1.1/DTD/svg11.dtd'>
<!-- Uploaded to: SVG Repo, www.svgrepo.com, Generator: SVG Repo Mixer Tools -->
<svg fill="#000000" width="800px" height="800px" viewBox="0 0 100 100" version="1.1" xml:space="preserve" xmlns="http://www.w3.org/2000/svg" xmlns:xlink="http://www.w3.org/1999/xlink">
<g id="Grid"/>
<g id="_x31_"/>
<g id="_x32_"/>
<g id="_x33_"/>
<g id="_x34_"/>
<g id="_x35_"/>
<g id="_x36_"/>
<g id="_x37_">
<path d="M50,86.3H13.7c-0.8,0-1.5-0.7-1.5-1.5V50c0-0.8,0.7-1.5,1.5-1.5h7.1c0.8,0,1.5,0.7,1.5,1.5c0,4.7,3.8,8.5,8.5,8.5   c4.7,0,8.5-3.8,8.5-8.5c0-0.8,0.7-1.5,1.5-1.5H50c0.8,0,1.5,0.7,1.5,1.5v7.4c0,0.8-0.7,1.5-1.5,1.5c-4.7,0-8.5,3.8-8.5,8.5   c0,4.7,3.8,8.5,8.5,8.5c0.8,0,1.5,0.7,1.5,1.5v7.3C51.5,85.6,50.8,86.3,50,86.3z M15.2,83.3h33.3v-4.4c-5.7-0.7-10-5.6-10-11.4   c0-5.8,4.4-10.7,10-11.4v-4.4h-6.2c-0.7,5.7-5.6,10-11.4,10c-5.8,0-10.7-4.4-11.4-10h-4.2V83.3z M86.3,51.5h-6.8   c-0.8,0-1.5-0.7-1.5-1.5c0-4.7-3.8-8.5-8.5-8.5c-4.7,0-8.5,3.8-8.5,8.5c0,0.8-0.7,1.5-1.5,1.5H50c-0.8,0-1.5-0.7-1.5-1.5v-7.4   c0-0.8,0.7-1.5,1.5-1.5c4.7,0,8.5-3.8,8.5-8.5c0-4.7-3.8-8.5-8.5-8.5c-0.8,0-1.5-0.7-1.5-1.5v-7.3c0-0.8,0.7-1.5,1.5-1.5h36.3   c0.8,0,1.5,0.7,1.5,1.5V50C87.8,50.8,87.1,51.5,86.3,51.5z M80.9,48.5h3.9V16.7H51.5v4.4c5.7,0.7,10,5.6,10,11.4   c0,5.8-4.4,10.7-10,11.4v4.4H58c0.7-5.7,5.6-10,11.4-10C75.3,38.5,80.2,42.8,80.9,48.5z M86.3,86.3H50c-0.8,0-1.5-0.7-1.5-1.5v-5.9   c-5.7-0.7-10-5.6-10-11.4c0-5.8,4.4-10.7,10-11.4V50c0-0.8,0.7-1.5,1.5-1.5h8c0.7-5.7,5.6-10,11.4-10c5.9,0,10.7,4.4,11.4,10h5.4   c0.8,0,1.5,0.7,1.5,1.5v34.8C87.8,85.6,87.1,86.3,86.3,86.3z M51.5,83.3h33.3V51.5h-5.3c-0.8,0-1.5-0.7-1.5-1.5   c0-4.7-3.8-8.5-8.5-8.5c-4.7,0-8.5,3.8-8.5,8.5c0,0.8-0.7,1.5-1.5,1.5h-8v5.9c0,0.8-0.7,1.5-1.5,1.5c-4.7,0-8.5,3.8-8.5,8.5   c0,4.7,3.8,8.5,8.5,8.5c0.8,0,1.5,0.7,1.5,1.5V83.3z M81.4,78v-5.8c0-0.8-0.7-1.5-1.5-1.5s-1.5,0.7-1.5,1.5V78   c0,0.8,0.7,1.5,1.5,1.5S81.4,78.8,81.4,78z"/>
</g>
<g id="_x38_"/>
<g id="_x39_"/>
<g id="_x31_0"/>
<g id="_x31_1"/>
<g id="_x31_2"/>
<g id="_x31_3"/>
<g id="_x31_4"/>
<g id="_x31_5"/>
<g id="_x31_6"/>
<g id="_x31_7"/>
<g id="_x31_8"/>
<g id="_x31_9"/>
<g id="_x32_0"/>
<g id="_x32_1"/>
<g id="_x32_2"/>
<g id="_x32_3"/>
<g id="_x32_4"/>
<g id="_x32_5"/>
</svg>