<?xml version="1.0" ?>
<!DOCTYPE svg  PUBLIC '-//W3C//DTD SVG 1.1//EN'  'http://www.w3.org/Graphics/SVG/1.1/DTD/svg11.dtd'>
<!-- Uploaded to: SVG Repo, www.svgrepo.com, Generator: SVG Repo Mixer Tools -->
<svg fill="#000000" width="800px" height="800px" viewBox="0 0 100 100" version="1.1" xml:space="preserve" xmlns="http://www.w3.org/2000/svg" xmlns:xlink="http://www.w3.org/1999/xlink">
<g id="Grid"/>
<g id="_x31_"/>
<g id="_x32_"/>
<g id="_x33_"/>
<g id="_x34_"/>
<g id="_x35_"/>
<g id="_x36_"/>
<g id="_x37_"/>
<g id="_x38_"/>
<g id="_x39_"/>
<g id="_x31_0"/>
<g id="_x31_1"/>
<g id="_x31_2"/>
<g id="_x31_3"/>
<g id="_x31_4"/>
<g id="_x31_5"/>
<g id="_x31_6"/>
<g id="_x31_7"/>
<g id="_x31_8"/>
<g id="_x31_9"/>
<g id="_x32_0"/>
<g id="_x32_1">
<path d="M75.3,75.8H24.7c-0.8,0-1.5-0.7-1.5-1.5V16.1c0-3.4,2.9-6.2,6.5-6.2h40.5c3.6,0,6.5,2.8,6.5,6.2v58.1   C76.8,75.1,76.1,75.8,75.3,75.8z M26.2,72.8h47.5V16.1c0-1.7-1.6-3.2-3.5-3.2H29.8c-2,0-3.5,1.4-3.5,3.2V72.8z M70.2,91H29.8   c-3.6,0-6.5-2.8-6.5-6.2V74.3c0-0.8,0.7-1.5,1.5-1.5h50.5c0.8,0,1.5,0.7,1.5,1.5v10.6C76.8,88.3,73.8,91,70.2,91z M26.2,75.8v9.1   c0,1.7,1.6,3.2,3.5,3.2h40.5c2,0,3.5-1.4,3.5-3.2v-9.1H26.2z M58,20c0-0.8-0.7-1.5-1.5-1.5H43.5c-0.8,0-1.5,0.7-1.5,1.5   s0.7,1.5,1.5,1.5h13.1C57.4,21.5,58,20.8,58,20z M67,42.5H55.3v-1.9c0-0.6-0.4-1-1-1h-3.5v-6.1c0-0.6-0.4-1-1-1s-1,0.4-1,1v6.1   h-3.6c-0.6,0-1,0.4-1,1v1.9H33c-0.6,0-1,0.4-1,1v15c0,0.6,0.4,1,1,1H67c0.6,0,1-0.4,1-1v-15C68,43,67.6,42.5,67,42.5z M46.3,41.6   h7.1v0.9h-7.1V41.6z M66,57.5H34v-13h11.3h9.1H66V57.5z M42.3,56.2h-2.8c-0.6,0-1-0.4-1-1v-1.9h-1.9c-0.6,0-1-0.4-1-1v-2.8   c0-0.6,0.4-1,1-1h1.9v-1.9c0-0.6,0.4-1,1-1h2.8c0.6,0,1,0.4,1,1v1.9h1.9c0.6,0,1,0.4,1,1v2.8c0,0.6-0.4,1-1,1h-1.9v1.9   C43.3,55.8,42.8,56.2,42.3,56.2z M40.4,54.2h0.8v-1.9c0-0.6,0.4-1,1-1h1.9v-0.8h-1.9c-0.6,0-1-0.4-1-1v-1.9h-0.8v1.9   c0,0.6-0.4,1-1,1h-1.9v0.8h1.9c0.6,0,1,0.4,1,1V54.2z M47,56.8c-0.3,0-0.6-0.1-0.8-0.4c-0.3-0.4-0.2-1.1,0.2-1.4l1.7-1.3   c0.4-0.3,1.1-0.2,1.4,0.2c0.3,0.4,0.2,1.1-0.2,1.4l-1.7,1.3C47.4,56.8,47.2,56.8,47,56.8z M51,56.8c-0.3,0-0.6-0.1-0.8-0.4   C49.9,56,50,55.4,50.4,55l1.7-1.3c0.4-0.3,1.1-0.2,1.4,0.2c0.3,0.4,0.2,1.1-0.2,1.4l-1.7,1.3C51.4,56.8,51.2,56.8,51,56.8z    M57.8,51.3c-1.6,0-2.9-1.3-2.9-2.9s1.3-2.9,2.9-2.9s2.9,1.3,2.9,2.9S59.3,51.3,57.8,51.3z M57.8,47.6c-0.5,0-0.9,0.4-0.9,0.9   s0.4,0.9,0.9,0.9s0.9-0.4,0.9-0.9S58.2,47.6,57.8,47.6z M62.4,56.2c-1.6,0-2.9-1.3-2.9-2.9s1.3-2.9,2.9-2.9s2.9,1.3,2.9,2.9   S64,56.2,62.4,56.2z M62.4,52.5c-0.5,0-0.9,0.4-0.9,0.9s0.4,0.9,0.9,0.9s0.9-0.4,0.9-0.9S62.9,52.5,62.4,52.5z M49.9,86   c-2.1,0-3.7-1.7-3.7-3.7c0-2.1,1.7-3.7,3.7-3.7c2.1,0,3.7,1.7,3.7,3.7C53.6,84.3,51.9,86,49.9,86z M49.9,80.5   c-0.9,0-1.7,0.8-1.7,1.7c0,0.9,0.8,1.7,1.7,1.7s1.7-0.8,1.7-1.7C51.6,81.3,50.8,80.5,49.9,80.5z"/>
</g>
<g id="_x32_2"/>
<g id="_x32_3"/>
<g id="_x32_4"/>
<g id="_x32_5"/>
</svg>